# xmcd CD database file
#
# Track frame offsets:
#	150
#	16813
#	30194
#	49310
#	69742
#	83748
#	113247
#	134395
#	158710
#	195987
#	219999
#	239663
#	251021
#	271143
#
# Disc length: 3815 seconds
#
# Revision: 3
# Processed by: cddbd v1.5.2PL0 Copyright (c) Steve Scherf et al.
# Submitted via: CDex 1.51
#
DISCID=b80ee50e
DTITLE=Various Artist - Aangenaam Jazz 2007 CD 2
DYEAR=2007
DGENRE=Jazz
TTITLE0=Sanna Van Vliet Trio - You Stepped Out Of A Dream
TTITLE1=Chet Baker - Let's Get Lost
TTITLE2=Alex Ryon - Soul Mate
TTITLE3=Laura Fygi - Caravane
TTITLE4=Ella Fitzgerald and Joe Williams - Too Close For Comfort
TTITLE5=Jesse Van Ruller and Bert Van Den Brink - Here Comes The Sun
TTITLE6=Patricia Barber - Pygmalion
TTITLE7=Silje Nergaard - Darkness Out Of Blue
TTITLE8=Grant Green - All The Things You Are
TTITLE9=Terri Walker - Forever And A Day
TTITLE10=George Duke - Guess You'r Not The One
TTITLE11=Denise Jannah - They Didn't Believe Me
TTITLE12=Trijntje Oosterhuis - Waiting For Charlie (To Come Home)
TTITLE13=New Cool Collective - Randy Spice
EXTD=YEAR: 2007
EXTT0=
EXTT1=
EXTT2=
EXTT3=
EXTT4=
EXTT5=
EXTT6=
EXTT7=
EXTT8=
EXTT9=
EXTT10=
EXTT11=
EXTT12=
EXTT13=
PLAYORDER=
